<?xml version="1.0" encoding="utf-8"?>
<!-- Generator: Adobe Illustrator 19.1.0, SVG Export Plug-In . SVG Version: 6.00 Build 0)  -->
<svg version="1.1" id="Icons" xmlns="http://www.w3.org/2000/svg" xmlns:xlink="http://www.w3.org/1999/xlink" x="0px" y="0px"
	 viewBox="0 0 32 32" enable-background="new 0 0 32 32" xml:space="preserve">
<g>
	<path d="M31.753,28.181l-6.301-10.914c-0.578-1.001-1.523-2.638-2.1-3.638L17.05,2.75C16.761,2.25,16.381,2,16,2
		c-0.381,0-0.761,0.25-1.05,0.75L8.648,13.629c-0.577,1-1.523,2.637-2.1,3.638L0.247,28.181c-0.578,1-0.105,1.819,1.05,1.819h12.602
		c1.156,0,3.046,0,4.201,0h12.603C31.859,30,32.331,29.181,31.753,28.181z M3,28l-0.297-0.001L16,4.932L29.381,28H3z"/>
	<rect x="15" y="24" width="2" height="2"/>
	<rect x="15" y="12" width="2" height="10"/>
</g>
</svg>
