<?xml version="1.0" encoding="utf-8"?>
<!-- Generator: Adobe Illustrator 19.1.0, SVG Export Plug-In . SVG Version: 6.00 Build 0)  -->
<svg version="1.1" id="Icons" xmlns="http://www.w3.org/2000/svg" xmlns:xlink="http://www.w3.org/1999/xlink" x="0px" y="0px"
	 viewBox="0 0 16 16" enable-background="new 0 0 16 16" xml:space="preserve">
<g>
	<circle cx="4" cy="10" r="1"/>
	<path d="M8,10c-1.103,0-2,0.897-2,2c0,1.103,0.897,2,2,2c1.103,0,2-0.897,2-2C10,10.897,9.103,10,8,10z M8,13c-0.551,0-1-0.449-1-1
		c0-0.552,0.449-1,1-1c0.551,0,1,0.449,1,1C9,12.551,8.551,13,8,13z"/>
	<circle cx="12" cy="10" r="1"/>
	<path d="M14.5,0h-13C0.675,0,0,0.675,0,1.5v13C0,15.325,0.675,16,1.5,16h13c0.825,0,1.5-0.675,1.5-1.5v-13
		C16,0.675,15.325,0,14.5,0z M15,14.5c0,0.271-0.229,0.5-0.5,0.5h-13C1.229,15,1,14.771,1,14.5v-13C1,1.229,1.229,1,1.5,1h13
		C14.771,1,15,1.229,15,1.5V14.5z"/>
	<path d="M12.5,2h-9C2.675,2,2,2.675,2,3.5v3C2,7.325,2.675,8,3.5,8h9C13.325,8,14,7.325,14,6.5v-3C14,2.675,13.325,2,12.5,2z
		 M13,6.5C13,6.771,12.771,7,12.5,7h-9C3.229,7,3,6.771,3,6.5v-3C3,3.229,3.229,3,3.5,3h9C12.771,3,13,3.229,13,3.5V6.5z"/>
</g>
</svg>
