<?xml version="1.0" encoding="utf-8"?>
<!-- Generator: Adobe Illustrator 19.1.0, SVG Export Plug-In . SVG Version: 6.00 Build 0)  -->
<svg version="1.1" id="Icons" xmlns="http://www.w3.org/2000/svg" xmlns:xlink="http://www.w3.org/1999/xlink" x="0px" y="0px"
	 viewBox="0 0 32 32" enable-background="new 0 0 32 32" xml:space="preserve">
<g>
	<path d="M16,2c0.239,0,0.432,0.207,0.432,0.461v0.362V4.31l1.423,0.429c2.743,0.826,4.658,3.432,4.658,6.339v1.231
		c0,2.949,0.707,8.612,5.442,13.406c0.1,0.102,0.191,0.197,0.274,0.286H16H3.77c0.083-0.089,0.174-0.185,0.274-0.286
		c4.735-4.792,5.442-10.456,5.442-13.406v-1.231c0-2.906,1.916-5.512,4.658-6.339l1.423-0.429V2.823V2.461
		C15.567,2.207,15.761,2,16,2 M16,0c-1.342,0-2.432,1.102-2.432,2.461v0.362c-3.515,1.059-6.082,4.351-6.082,8.254v1.231
		c0,3.692-1.215,8.307-4.865,12C-1.026,28,2.621,28,2.621,28H16h13.378c0,0,3.649,0,0-3.692c-3.647-3.693-4.864-8.308-4.864-12
		v-1.231c0-3.903-2.565-7.195-6.082-8.254V2.461C18.432,1.102,17.344,0,16,0L16,0z"/>
	<path d="M20,30h-8c0,1.105,1.193,2,2.667,2h2.667C18.806,32,20,31.105,20,30L20,30z"/>
</g>
</svg>
