<?xml version="1.0" encoding="utf-8"?>
<!-- Generator: Adobe Illustrator 19.1.0, SVG Export Plug-In . SVG Version: 6.00 Build 0)  -->
<svg version="1.1" id="Layer_1" xmlns="http://www.w3.org/2000/svg" xmlns:xlink="http://www.w3.org/1999/xlink" x="0px" y="0px"
	 viewBox="0 0 32 32" style="enable-background:new 0 0 32 32;" xml:space="preserve">
<style type="text/css">
	.st0{fill:#231F20;}
</style>
<path id="_x30_9_two-step_authentication" class="st0" d="M16,0C11.937,0,7.937,5,2,5c0,14.17,12,27,14,27c1.875,0,14-12.83,14-27
	C23.875,5,19.937,0,16,0z M15.986,29.809C13.414,27.967,4.937,17.994,4.071,6.828c2.845-0.47,5.242-1.815,7.243-2.938
	C13.122,2.876,14.684,2,16,2c1.226,0,2.727,0.848,4.465,1.83c2.043,1.154,4.493,2.539,7.463,3.007
	C27.066,18.053,18.615,27.923,15.986,29.809z M14,12v-2c0-1.103,0.897-2,2-2s2,0.897,2,2h1c0-1.657-1.343-3-3-3s-3,1.343-3,3v2h-2v7
	h10v-7H14z M20,18h-8v-5h1h1h6V18z M15.5,14.5h1v2h-1V14.5z"/>
</svg>
