<?xml version="1.0" encoding="utf-8"?>
<!-- Generator: Adobe Illustrator 19.1.0, SVG Export Plug-In . SVG Version: 6.00 Build 0)  -->
<svg version="1.1" id="Layer_1" xmlns="http://www.w3.org/2000/svg" xmlns:xlink="http://www.w3.org/1999/xlink" x="0px" y="0px"
	 viewBox="20 -20 72 72" style="enable-background:new 20 -20 72 72;" xml:space="preserve">
<style type="text/css">
	.st0{fill:#231F20;}
</style>
<path class="st0" d="M48,0c-1.65,0-3,1.35-3,3v26c0,1.65,1.35,3,3,3h16c1.65,0,3-1.35,3-3V3c0-1.65-1.35-3-3-3H48z M47,6h18v20H47V6
	z M64,30H48c-0.542,0-1-0.458-1-1v-2h18v2C65,29.542,64.542,30,64,30z M65,3v2H47V3c0-0.542,0.458-1,1-1h16C64.542,2,65,2.458,65,3z
	 M55,28h2v1h-2V28z M54,3h4v1h-4V3z M43,7V5c-1.65,0-3,1.35-3,3v16c0,1.65,1.35,3,3,3v-2c-0.542,0-1-0.458-1-1V8
	C42,7.458,42.458,7,43,7z M69,25v2c1.65,0,3-1.35,3-3V8c0-1.65-1.35-3-3-3v2c0.542,0,1,0.458,1,1v16C70,24.542,69.542,25,69,25z
	 M88.402,29.14c-0.506-0.225-1.095,0.006-1.318,0.513C81.649,42.013,69.448,50,56,50c-12.592,0-24.019-6.889-29.955-18H33
	c0.552,0,1-0.447,1-1s-0.448-1-1-1h-9c-0.552,0-1,0.447-1,1v9c0,0.553,0.448,1,1,1s1-0.447,1-1v-5.776
	C31.461,45.232,43.157,52,56,52c14.241,0,27.161-8.456,32.916-21.543C89.138,29.951,88.908,29.361,88.402,29.14z M23.598,2.86
	C23.729,2.918,23.865,2.945,24,2.945c0.384,0,0.751-0.223,0.916-0.598C30.351-10.013,42.552-18,56-18
	c12.579,0,24.024,6.892,29.96,18H79c-0.552,0-1,0.447-1,1s0.448,1,1,1h9c0.552,0,1-0.447,1-1v-9c0-0.553-0.448-1-1-1s-1,0.447-1,1
	v5.781C80.539-13.226,68.83-20,56-20c-14.241,0-27.161,8.456-32.916,21.543C22.862,2.049,23.092,2.639,23.598,2.86z"/>
</svg>
