<?xml version="1.0" encoding="utf-8"?>
<!-- Generator: Adobe Illustrator 19.1.0, SVG Export Plug-In . SVG Version: 6.00 Build 0)  -->
<svg version="1.1" id="Layer_1" xmlns="http://www.w3.org/2000/svg" xmlns:xlink="http://www.w3.org/1999/xlink" x="0px" y="0px"
	 viewBox="0 0 16 16" enable-background="new 0 0 16 16" xml:space="preserve">
<path d="M13.5,11c-0.88,0-1.65,0.457-2.095,1.143L4.839,8.86C4.938,8.591,5,8.304,5,8S4.938,7.409,4.839,7.14l6.566-3.283
	C11.85,4.543,12.62,5,13.5,5C14.881,5,16,3.881,16,2.5S14.881,0,13.5,0S11,1.119,11,2.5c0,0.144,0.019,0.283,0.042,0.42L4.312,6.285
	C3.856,5.804,3.215,5.5,2.5,5.5C1.119,5.5,0,6.619,0,8s1.119,2.5,2.5,2.5c0.715,0,1.356-0.304,1.812-0.785l6.731,3.365
	C11.019,13.217,11,13.356,11,13.5c0,1.381,1.119,2.5,2.5,2.5s2.5-1.119,2.5-2.5S14.881,11,13.5,11z M13.5,1
	C14.327,1,15,1.673,15,2.5S14.327,4,13.5,4S12,3.327,12,2.5S12.673,1,13.5,1z M2.5,9.5C1.673,9.5,1,8.827,1,8s0.673-1.5,1.5-1.5
	S4,7.173,4,8S3.327,9.5,2.5,9.5z M13.5,15c-0.827,0-1.5-0.673-1.5-1.5s0.673-1.5,1.5-1.5s1.5,0.673,1.5,1.5S14.327,15,13.5,15z"/>
</svg>
